<?xml version="1.0" encoding="UTF-8"?>
<svg width="1841px" height="503px" viewBox="0 0 1841 503" xmlns="http://www.w3.org/2000/svg" xmlns:xlink="http://www.w3.org/1999/xlink" version="1.1">
 <!-- Generated by Pixelmator Pro 2.1.3 -->
 <g id="4eec51fb-01bc-4fa0-9f17-f46ae8424579-copy">
  <path id="Path" d="M617.266 136.389 C625.605 136.389 634.113 137.07 642.792 138.431 651.641 139.793 659.554 141.154 666.532 142.516 674.53 144.217 682.358 146.174 690.016 148.387 L690.016 199.694 C682.868 197.652 674.615 195.27 665.255 192.547 655.896 189.994 646.196 188.122 636.156 186.931 626.115 185.91 616.245 185.995 606.545 187.186 597.016 188.377 588.422 191.526 580.764 196.631 573.106 201.566 566.98 208.883 562.385 218.583 557.62 228.453 555.238 241.387 555.238 257.383 555.238 273.549 557.45 286.483 561.875 296.183 566.299 306.053 572.17 313.455 579.488 318.39 586.805 323.325 595.144 326.388 604.503 327.58 613.863 328.601 623.563 328.431 633.603 327.069 643.643 325.878 653.513 323.921 663.213 321.198 673.083 318.646 682.017 316.008 690.016 313.285 L690.016 364.848 C682.188 367.23 674.189 369.357 666.021 371.229 659.214 372.931 651.471 374.463 642.792 375.824 634.113 377.015 625.605 377.611 617.266 377.611 609.608 377.611 601.1 376.93 591.74 375.569 582.21 374.207 572.681 371.74 563.151 368.166 553.451 364.763 544.006 360.083 534.817 354.127 525.628 348.171 517.459 340.768 510.312 331.919 503.165 322.9 497.464 312.264 493.21 300.011 488.955 287.759 486.828 273.549 486.828 257.383 486.828 241.046 488.955 226.752 493.21 214.499 497.464 202.247 503.165 191.696 510.312 182.847 517.459 173.828 525.628 166.34 534.817 160.384 544.006 154.428 553.451 149.663 563.151 146.089 572.681 142.516 582.21 140.048 591.74 138.687 601.1 137.155 609.608 136.389 617.266 136.389 Z M835.514 183.357 C845.044 183.357 854.489 184.293 863.848 186.165 873.378 188.037 881.887 191.951 889.374 197.907 896.862 203.863 902.988 212.372 907.753 223.433 912.518 234.495 914.9 249.13 914.9 267.338 L914.9 373.782 855.169 373.782 855.169 288.78 C855.169 271.082 852.276 257.638 846.49 248.449 840.875 239.259 832.706 234.665 821.985 234.665 814.328 234.665 807.861 236.366 802.586 239.77 797.31 243.173 793.141 247.853 790.078 253.809 786.844 259.765 784.462 266.743 782.931 274.741 781.569 282.569 780.888 291.248 780.888 300.777 L780.888 373.782 716.818 373.782 716.818 145.323 775.528 145.323 775.528 222.157 C775.528 222.157 776.549 220.2 778.591 216.286 780.803 212.202 784.292 207.692 789.057 202.757 793.822 197.822 800.033 193.398 807.691 189.484 815.349 185.399 824.623 183.357 835.514 183.357 Z M1033.597 377.611 C1024.067 377.611 1014.537 376.675 1005.007 374.803 995.648 372.931 987.224 369.017 979.737 363.061 972.249 357.105 966.123 348.681 961.358 337.79 956.593 326.729 954.21 312.009 954.21 293.63 L954.21 187.952 1013.942 187.952 1013.942 272.188 C1013.942 289.886 1016.749 303.33 1022.365 312.519 1028.151 321.709 1036.404 326.303 1047.125 326.303 1054.783 326.303 1061.165 324.602 1066.27 321.198 1071.545 317.965 1075.8 313.37 1079.033 307.414 1082.266 301.628 1084.564 294.651 1085.925 286.483 1087.457 278.484 1088.222 269.72 1088.222 260.191 L1088.222 187.952 1152.548 187.952 1152.548 373.782 1104.304 373.782 1093.583 338.811 C1093.583 338.811 1092.477 340.853 1090.264 344.937 1088.222 348.851 1084.819 353.276 1080.054 358.211 1075.289 363.146 1069.078 367.656 1061.42 371.74 1053.762 375.654 1044.488 377.611 1033.597 377.611 Z M1310.81 183.357 C1320.339 183.357 1329.784 184.293 1339.144 186.165 1348.673 188.037 1357.182 191.951 1364.67 197.907 1372.157 203.863 1378.284 212.372 1383.048 223.433 1387.813 234.495 1390.196 249.13 1390.196 267.338 L1390.196 373.782 1330.465 373.782 1330.465 288.78 C1330.465 271.082 1327.572 257.638 1321.786 248.449 1316.17 239.259 1308.002 234.665 1297.281 234.665 1289.623 234.665 1283.156 236.366 1277.881 239.77 1272.606 243.173 1268.436 247.853 1265.373 253.809 1262.14 259.765 1259.758 266.743 1258.226 274.741 1256.865 282.569 1256.184 291.248 1256.184 300.777 L1256.184 373.782 1191.858 373.782 1191.858 187.952 1240.102 187.952 1250.823 222.157 C1250.823 222.157 1251.844 220.2 1253.887 216.286 1256.099 212.202 1259.587 207.692 1264.352 202.757 1269.117 197.822 1275.328 193.398 1282.986 189.484 1290.644 185.399 1299.919 183.357 1310.81 183.357 Z M1623.504 187.952 L1557.647 284.185 C1562.752 290.992 1568.112 298.225 1573.728 305.882 1579.514 313.54 1585.3 321.283 1591.086 329.111 1597.042 336.939 1602.828 344.682 1608.444 352.34 1613.889 359.998 1619.165 367.145 1624.27 373.782 L1553.052 373.782 1506.595 312.009 1493.066 312.009 1493.066 373.782 1429.761 373.782 1429.761 139.963 1493.066 139.963 1493.066 256.107 1506.339 256.107 C1506.339 256.107 1507.531 254.49 1509.913 251.257 1512.296 247.853 1515.188 243.599 1518.592 238.494 1521.995 233.388 1525.739 227.943 1529.823 222.157 1533.908 216.201 1537.651 210.67 1541.055 205.565 1544.288 200.46 1547.096 196.291 1549.479 193.057 1551.861 189.654 1553.052 187.952 1553.052 187.952 Z M1781 183.357 L1777.937 239.004 C1764.153 235.941 1752.921 236.111 1744.242 239.515 1735.734 242.748 1729.012 247.598 1724.077 254.065 1719.142 260.531 1715.823 267.593 1714.122 275.251 1712.25 283.079 1711.314 289.631 1711.314 294.906 L1711.314 373.782 1647.754 373.782 1647.754 187.952 1696.764 187.952 1706.464 221.902 C1706.464 221.902 1707.485 219.86 1709.527 215.775 1711.739 211.691 1715.738 207.267 1721.524 202.502 1727.14 197.737 1734.798 193.398 1744.498 189.484 1754.198 185.399 1766.365 183.357 1781 183.357 Z" fill="#d3bfb8" fill-opacity="1" stroke="none"/>
 </g>
 <path id="Path-2" d="M35.028 420.788 C35.416 426.699 38.137 432.214 42.593 436.118 47.049 440.023 52.874 441.996 58.785 441.603 L200.275 432.43 189.679 268.999 25.876 279.62 Z" fill="#e05542" fill-opacity="1" stroke="none"/>
 <g id="73488f41-a3c4-47f4-987e-7bd10d521782">
  <path id="Path-1" d="M360.471 76.084 L76.891 76.084 C64.544 76.084 54.53 86.067 54.53 98.393 L54.53 234.092 225.29 234.092 225.29 403.614 360.467 403.614 C366.391 403.623 372.076 401.277 376.269 397.093 380.463 392.909 382.823 387.229 382.828 381.305 L382.828 98.393 C382.826 92.473 380.469 86.793 376.276 82.608 372.084 78.422 366.399 76.075 360.475 76.084 Z" fill="#e05542" fill-opacity="1" stroke="none"/>
 </g>
</svg>
