<?xml version="1.0" encoding="UTF-8"?>
<svg width="357px" height="366px" viewBox="0 0 357 366" xmlns="http://www.w3.org/2000/svg" xmlns:xlink="http://www.w3.org/1999/xlink" version="1.1">
 <!-- Generated by Pixelmator Pro 2.1.3 -->
 <g id="73488f41-a3c4-47f4-987e-7bd10d521782-copy">
  <path id="Path-2" d="M9.028 344.788 C9.416 350.699 12.137 356.214 16.593 360.118 21.049 364.023 26.874 365.996 32.785 365.603 L174.275 356.43 163.679 192.999 -0.124 203.62 Z" fill="#e05542" fill-opacity="1" stroke="none"/>
  <path id="Path-1" d="M334.471 0.084 L50.891 0.084 C38.544 0.084 28.53 10.067 28.53 22.393 L28.53 158.092 199.29 158.092 199.29 327.614 334.467 327.614 C340.391 327.623 346.076 325.277 350.269 321.093 354.463 316.909 356.823 311.229 356.828 305.305 L356.828 22.393 C356.826 16.473 354.469 10.793 350.276 6.608 346.084 2.422 340.399 0.075 334.475 0.084 Z" fill="#e05542" fill-opacity="1" stroke="none"/>
 </g>
</svg>
